# xmcd
#
# Track frame offsets:
#	150
#	8006
#	17843
#	33908
#	47068
#	62845
#	69670
#	85998
#	99468
#	113855
#
# Disc length: 1830 seconds
#
# Revision: 1
# Processed by: cddbd v1.5.2PL0 Copyright (c) Steve Scherf et al.
# Submitted via: audiograbber 1.83.01
#
DISCID=7b07240a
DTITLE=Mark Kozelek - The Finally LP
DYEAR=2008
DGENRE=Rock
TTITLE0=Piano Song
TTITLE1=Finally
TTITLE2=New Partner
TTITLE3=Send in the Clowns
TTITLE4=Lazy
TTITLE5=Bedtime Lullaby
TTITLE6=Celebrated Summer
TTITLE7=My Friend Bob
TTITLE8=If You Want Blood
TTITLE9=Gaping Mouth
EXTD=
EXTT0=
EXTT1=
EXTT2=
EXTT3=
EXTT4=
EXTT5=
EXTT6=
EXTT7=
EXTT8=
EXTT9=
PLAYORDER=
